<mxfile host="app.diagrams.net" agent="Mozilla/5.0 (Windows NT 10.0; Win64; x64) AppleWebKit/537.36 (KHTML, like Gecko) Chrome/131.0.0.0 Safari/537.36 Edg/131.0.0.0" version="24.8.9" pages="2">
  <diagram name="Page-1" id="eCy6dOFie3WYYEItUSnX">
    <mxGraphModel dx="2298" dy="1302" grid="1" gridSize="10" guides="1" tooltips="1" connect="1" arrows="1" fold="1" page="1" pageScale="1" pageWidth="1600" pageHeight="900" math="0" shadow="0">
      <root>
        <mxCell id="0" />
        <mxCell id="1" parent="0" />
        <mxCell id="ZniKWQmPClYMH5LM9wO8-1" value="" style="rounded=1;whiteSpace=wrap;html=1;" vertex="1" parent="1">
          <mxGeometry x="370" y="220" width="280" height="140" as="geometry" />
        </mxCell>
        <mxCell id="ZniKWQmPClYMH5LM9wO8-2" value="" style="rounded=1;whiteSpace=wrap;html=1;" vertex="1" parent="1">
          <mxGeometry x="740" y="290" width="280" height="140" as="geometry" />
        </mxCell>
      </root>
    </mxGraphModel>
  </diagram>
  <diagram id="n5a2eEhxbIJkRW1JZrZD" name="Page-2">
    <mxGraphModel dx="3448" dy="3753" grid="0" gridSize="10" guides="1" tooltips="1" connect="1" arrows="1" fold="1" page="1" pageScale="1" pageWidth="1600" pageHeight="900" background="#ffffff" math="0" shadow="0">
      <root>
        <mxCell id="0" />
        <mxCell id="1" parent="0" />
        <mxCell id="medBBw7VQGJF7NqLrqEZ-2" value="" style="shape=stencil(lZbbcuIwDIafJrcan2Vfd9v36EzpklkWOpSe3n7lzYTGMvkpdyHRh3X4JXnwd6/bx5fN4Mzr6Xj4s/kYn07bwf8anBv3281xPMnT4O8Hf/d8OG5+Hw9v+6fp98tjtaxPfw/v9R8+J84aQ8ZUzJmv6ZWjFP6/eJiA3bhfAIUp2sbeMoUIgEjcHuCZjANAIF8aIBZyAMhMJTcAF8pmHZDPKgaJKlsAMFnXApkicIkNZQUUsmkdSJZc0gCqQygUOqD4dcAnSr4DyjrgAtmggQyCtp5c1kAALkWyRWc1gyQZ4q4KNiN7rwLAUg1klP+JGPhjLUXWgGWQUqebrXYHqLIP5IoGkPCCKDV2ADih9lboXAKySKVzKZEDWeXz5wWAyiztqQZAHToIyORVHfLs5GXAk++UVFB7BmIVg8wQMGKinz1eNg84IZi5e89z9Xs0XxZTnrW2bGgA2EsTIIL+6Ua92Bsgb0vclSEAsXarR+rMIIBb7Vn3syiLwTyq/dwCVzaPNeTaiK/sNslHa39leUa92fByZj3wHFSQxOtbkVoKyJ7ntTrby5oD+nFJLwQDo5UVpdrSzNNsbdh19ijemCmlG+xl1HX2yJ8qL50fFG8+r6+f5VNuRqmNF9dL2k81/BU93HoZ/AEgD993z+dxt5uursvv+q4qr6Z7rr//Bw==);lineShape=1;strokeColor=default;sketch=1;hachureGap=4;jiggle=2;curveFitting=1;fontFamily=Architects Daughter;fontSource=https%3A%2F%2Ffonts.googleapis.com%2Fcss%3Ffamily%3DArchitects%2BDaughter;" vertex="1" parent="1">
          <mxGeometry x="58.603916116902155" y="7.7703720354480765" width="2.634736127513179" height="46.58312509303266" as="geometry" />
        </mxCell>
        <mxCell id="medBBw7VQGJF7NqLrqEZ-3" value="" style="shape=stencil(lVfLctswDPwaXTEkwOc5Tf8jM3FqT1074zh9/H2hKlRFyFpPbrKFFYEFsAAHeXjbP73uBnZv18v5++7X4fm6H+TLwHw47XeXw1WfBnkc5OHlfNl9u5zfT8/T79en0XJ8+nH+OX7h94Rjym4Esfsz/SGeUv73z9fJ/ng4Le2ZfOwA4yf8NiAwhR7ghSRtA5Kn8d0CEEnctn3OFKWzd+SAfWVrz5QCsK8UnQ0AAbybHZhJdZQjOCJQDH3ITA4cUQKlnqPsW1S3SQrEfRZKolpAFtSBHlALJUBrclRyD6gUQGHE+fUCUCoAZCpsARUBEnGxgAxiiIFqsACUhyhUVyw55JJQ6EujpvaJLcBHs8yASBm7ZFnS6gKZ1qCziUEoYlqdYYmpoBO0Q5MFRIalYURmBCDNcK0jFwBY3r55vAga0ar9kIOlNSOXhLzJQ2zVtXXCRzHPgNxo2ALY0ijEQLs1aDHFp0QDgOahrjouI0CxLi3EcKuY8qpHC6rvuIq6wvmg9c1iaQq4g8yA0ETInR41SpbI4xOSAQSsAmElG4K18rOApLT2QReVKgDQiWLKNemAAACdWc7MdUcB9GgplHuXdIyiDlKAaTmfGtG3Ac42hCYaqUayq4nXMYmWn0y1P0CXE9TT6oCZoow7rljxltpIuJ22ltSFPVTWVsgLe+TPLIpLe8CQFplYe7Q1MLHxp8DZ4+3eo/aoNZ3tfcntxA17b1a91ORmw96uhpE88N9Z8ZJwx/9s8itQ4r1dJIWbEGzw/8n7wl17ffh/OXk5HI/T3Wb53l5m9K/pIiSPfwE=);lineShape=1;strokeColor=default;sketch=1;hachureGap=4;jiggle=2;curveFitting=1;fontFamily=Architects Daughter;fontSource=https%3A%2F%2Ffonts.googleapis.com%2Fcss%3Ffamily%3DArchitects%2BDaughter;" vertex="1" parent="1">
          <mxGeometry x="54.76264930053344" y="8.995379265682914" width="21.616656048747473" height="28.266303982677073" as="geometry" />
        </mxCell>
        <mxCell id="medBBw7VQGJF7NqLrqEZ-4" value="" style="shape=stencil(7VjLctswDPwaXzEEwOc5Tf8jM3EaT1M74yR9/H3heuiaULS2esqhN1nSmsBiF4S40puXx7vn9UrCy+t+93X9Y3P/+rjSTyuRzfZxvd+82tVKb1d687Dbr7/sd2/b++Pv57vDm4erb7vvh3/4ecRppsIHlIRfxztSqaU/dz4fAU+b7QiQPABiJVUASFTLAMil35lbIbYBUJViBIBCaVyhMWW0QqGgI0ApV5hDlBGQ+prvA4RqGgGFBLAkjeJIa6uUQEhiIbkVGiUBAKYwAjgECmEewbn/4dUIIZYlQVViXpJ1pCKLaCV2JOG6BUrufSyMEx1XKq+SxOH9ItQAP9xIR1kkIQUAjcQjQANFULKYqY3mYSVt84DSegAdcEETYUKSib0AhGlGRoDZCTWANukYRgOitZkuxjpY06kg6Zopj0mrSRcIr4ZJSBU6oUSK7AEBAHKjwD4HpL0cfU8yljLIIZvUqq9DACxlpjrSapVWULhsUnPSsBwyANhjB4jQD4W7mE8AgR2mFOIxaWucmUGlLYfiAbDnmbwnISlYocW+wZ4ASg0Bive00cpgUzfH1VHe1qkKYMkA2cnbkkYWtT16YlFGAKUysShiqVbfu22brwhgQnCtsnbTvi+N7LVkAEFaCr3PnYUkICSTdxgLZ5OHIk/b9uFCkl77OYsWBwh9oFsAACsUI3E0EFdYuJy6Ic+kgTb1ZOof/ZASbGQxeQMV7If/E+VHmih1SVB1MoFenCh1Ea0fbKLkviNf+bHEviVd+Brj7t0rP/cC1VF1F74n2c8YcrLSDP/Nfa8m3Cwmu7PxD/ipkwFD+gg+J9DoNmfuxpvzQJ4AkAWM0pYWAZKfbi+EdChRWZK0NSPhJaweJk0nC1w22+zZDUlYF/9ykHEJYBd/z00eNk9Px2OX8+f+nMVuHc9o9PY3);lineShape=1;strokeColor=default;sketch=1;hachureGap=4;jiggle=2;curveFitting=1;fontFamily=Architects Daughter;fontSource=https%3A%2F%2Ffonts.googleapis.com%2Fcss%3Ffamily%3DArchitects%2BDaughter;" vertex="1" parent="1">
          <mxGeometry x="75.50578347242254" y="27.845665324219453" width="7.953380134181998" height="17.80432671237304" as="geometry" />
        </mxCell>
        <mxCell id="medBBw7VQGJF7NqLrqEZ-5" value="" style="shape=stencil(3VjLctswDPwaXzEkQfBxTtP/yEycxlM3zjjp6+8L1UNXgKwdu4ceepNlrUAAi+WKG757e3543W5SeHs/Hj5vv+8e3583/GGT0u7leXvcvevVhu83fPd0OG4/HQ9fXx5Pv18fpienqy+Hb9MbfpxwuVINEyqFn6c7MVGMv+98PAH2u5cZgBvVbgCJqQQAiJTZALhQzeuAVCjZCBIpCAAwpWIAJVPsAJB8hCoU2jogNoo2gnTKFUZo1QCyUANlTZkk2ioJMQOArtgBAmWUtIyqnxvXKCcAqBQdoJCgxnWKyQIyddA4pYbYKmkrKwJkYvGAgNhaiS29tTMVNC4HSnkRASSd9e/gAQ2UVYng5mFqJYqgOTTfhwKqlHVEXYRGggB9EGHGpQLINwFs0qxlLesAEQ/IyiWgGiVQtznoTAewpNJGTQagRYqg0y1Qs0tqCXKp8Rj5MyAQg6Sb6pwtaz3X7SKgK/nYAxKgRufRphmgowhlEGFWJQZJ9+b3By0DBHRqLoKMV6wCLL1bw0kvdiCtW0EAHRcboScqgBpa1uoAGW6KugBHbwUguVdqtO4BBai3Vr1YuZ8Wiendk086AhFQ5gTXB+USWFJtXltbJQHKV5cjKkM813KIixGFVUpDVGYj2gA1dAHinECHyqc1CcUDEqK3LmkxogJy6LKoUoDaqvMQuq8SjNB90i2PGbxsf0Lwm5y2GiqZFsVpZR+O6DJA37eYUWT6bgaURGyznqW1usvZ1unYJmRP+uD/edNSKQMToQao2qmWMLzs9a4P7aOXXR/ylf+H63P+/grXx4sIN7s+sKS/cn3V9+EfuD7kXG91fbqkaGdUOyPIV8po09kmYjnWxnULKDJ04TI12HNp2mRA46JqhFMyLSuIsJDKysOvXA7g3UyJsG3iP3aVKQmKt+eFthlJsX7sdluiKHA/Ucnots15SMKaYrj9J0GFUcEoTrlhxqoXTsLUniG5KP5LAO8Lk8yzfx6NQfKnBwEyKGf/fsyI6VPKKfBwl2tj6SiaYf31+W6fL3Dz15mNbsbG0K0ql+2XcpZRgFsPra4A6MWfM7Kn3X5/OmKb/+/P1PTW6TyO738B);lineShape=1;strokeColor=default;sketch=1;hachureGap=4;jiggle=2;curveFitting=1;fontFamily=Architects Daughter;fontSource=https%3A%2F%2Ffonts.googleapis.com%2Fcss%3Ffamily%3DArchitects%2BDaughter;" vertex="1" parent="1">
          <mxGeometry x="86.53924830874689" y="26.3741537630641" width="14.43176158753522" height="20.035156973772473" as="geometry" />
        </mxCell>
        <mxCell id="medBBw7VQGJF7NqLrqEZ-6" value="" style="shape=stencil(7VnLbhsxDPwaXwlRFPU4p+1/BIjTGE3jwElff18ahtYrrneCADm0QW72mmOJ1JAcajdy9XR3/bjdxPD0fNh/2/7a3TzfbeTTJsbdw932sHu2Txv5vJGr2/1h+/Ww//Fwc/r+eH20PH76vv95/IffJxwnEj6iYvhzehL7gy8n+/vdw8w+MpU42HOgKgDQSMO4QKIa1gFSKLUBkCLFtg5ISlkGQGbKZR2g9n95AJRKDTittqXRhxZI6jrANsB1BEybXANIGQGZ0gsrOEAhQSsE0jGsrRIDgDbK6gE1AUClNJ5Daz1ulwGZWvUARA1Vfw4cAgWEECrldYhI3PymCqCfBirqAYL4ahkhi8BGAKiU2QMY8NUAIS3IgQDRr1AbXEEshca4lkIlrwO4URvDmjPMiOZ3ZPTKgH3ZU8PIUhBb+79N9okatHcOm30ADquvq0ZFhvaORYqrXiYdc0eZFJxY6dGY7K1uK4q/qy9mL+iALQ2qB6AAcVzUeeMIKNvWqnixAoNUZu2UnAES4BwXYvWAhnyoFNWfQgZRtbCWMfeNRgxy/xzECVDgCtl+Hhu0tYoIwloWTmeFTtfk63wxH0DqtEXrqbGriMuATOJKaoS9qk7cnwEyyIYjYAxrYwpohegBViEVOL2MUq0kgK019/ozAQpkq22gZg9APlhMlgBGNWChrCqu8tZmavNOo45+VggzZcWoCJzb9+zkIJmaT4gmsLJacxUHSFQAmYyu0bFPoVKyDXgFkDu9VjNIPQCJEjsnr/YybA9G16beB9Q/LSHaIkoKFKulXGF/Di8ktdeTDKNUpyIxI1MA1KjihxmjK5ocLEfDGCULNATUSymHuMRUiwcElKPJC4fj2aOUKxQXTie0peYzzipPRgnU+jQ1Ozh+S0BpFzIuIvUjFFxYM57gsu8oNiPCRm1BHFfIDQ7GKXlFZmsip0W801mgZLVR3hXX49SIZsQPDf3/aegR8E9o6EWQ3lZDWzMcC5jRqIJclkB5dNoSB47D0kXLTOEWdKOkXXjNyguqqe/lgih7wMcF0fu8INLFWTPMuRT8VFkDRUAOmUr7LEnRJBBTn7+m2pfgwbGJN3fVXfqTlXJfxwWO1RMsEPyFqXbVvmLO43YSvOBazD0CRVjoyT45i+/nvD7iPsldDr4vXwwHSdvquPcAhbz6joBnwtJF/tkc8aB2WTYzx01Z/W4EnJP1ZPbOIh3I4is7Q/3+2jc2L9vbh/Prodvd/f3p7dL8d/86yR6dXkXJ578=);lineShape=1;strokeColor=default;sketch=1;hachureGap=4;jiggle=2;curveFitting=1;fontFamily=Architects Daughter;fontSource=https%3A%2F%2Ffonts.googleapis.com%2Fcss%3Ffamily%3DArchitects%2BDaughter;" vertex="1" parent="1">
          <mxGeometry x="100.67612859926226" y="9.676113992072374" width="17.70942621813424" height="33.68409081622178" as="geometry" />
        </mxCell>
        <mxCell id="medBBw7VQGJF7NqLrqEZ-7" value="" style="shape=stencil(fZbLUsMwDEW/JluNbdmWvObxH52h0AylZUp5/T0yIW5lEu0SJyeypHsVD3jzttu8bofg3s6n4/P2c3w47wa8HUIYD7vtaTzL1YB3A948Hk/bp9Px/fAw3b9u6pv16uX4Ub/wNXHMgKFSwX1PK+gh5N+V+wnYj4croCQoUQHRA1tAAcoKSBEwmkD0CsgEWAwgQtEAFchpHeAMpHPgAhzWAUo9UDKwESEjOFaAdw6cWyeS64nCc6UXAWRwRQMIxOtAkFbrCJzAGZ0LHoruHEkEIwdfIHWdc8DWlkRrpMVEZtKBwGkAMwSjEfIYnQLqJ4xW1w3oKtVNGoCk2KlPyhCNstYihj5CMSLUNnVbklYaSVchaGlUsZABcG/qKkcjhys1t1ajHaIZpompmWo562bJJtdsAhfTN0O0wbDcOYKoc7iMnmWPyuDKPUBGmepo7Dwq4xMNuYrWNFAHtLElATp9Xyb6muWwiyBqMbbkA7C2HGUoxhQQQ6JWBs8rywF6YSQ2DfdPeWJZy28O6N/ISFbTwOv9S0be+sHNI675P5tDzxPkbtKb9akDq3Pz/IFlSRAkbWY3LyznyxBT9775pyrgdUHDPJ/+3peLy3njcdzvp+PK9fP+fCJL09kG734A);lineShape=1;strokeColor=default;sketch=1;hachureGap=4;jiggle=2;curveFitting=1;fontFamily=Architects Daughter;fontSource=https%3A%2F%2Ffonts.googleapis.com%2Fcss%3Ffamily%3DArchitects%2BDaughter;" vertex="1" parent="1">
          <mxGeometry x="115.21635455482283" y="8.218648759703797" width="3.943354247905745" height="3.941098792215371" as="geometry" />
        </mxCell>
        <mxCell id="medBBw7VQGJF7NqLrqEZ-9" value="" style="shape=stencil(7VlJbhsxEHyNrg2SzfXsOP8wYDkW4liG7Gy/T00EToY9mgoCBEgOumnpInvv6pmd3rw+3r3sd8G9vp2OH/dfD/dvjzt9twvh8Py4Px3e8Gmntzu9eTie9h9Ox8/P9+fvL3eT5PTp0/HLdMK3My4E0TShgvt+/iVKrj9/eH+Wfzo8L+R9E/WDfHDiCgEkySNA5yMuA4J4HQDZiQ/bgColDPKlSMjb8kWKG+RrlEQsKBLH82uSGLfls7RR/5olEP3xb7HyleiP2/MoX0TJ+bN1C/nUtuVVslr5TOwNUryVjywjunULee+YvA/WP0m35Z2kMaMRr0oSDtll9InSSAkg31f544g/IW/OV/Hk/Ch+1L+EXkKX/eOk1gGQUACJ1nA0Ne9ohqIE6pgSSMJAQqBRymizh09JTmjt580A35XcAtQ4ApwUBmi2D3luNHwSR7c2qcSE6G2faFJI2UR03mzPJz6N2oO6MMCzC5CWKxdl4qI4t/5FEGhnSV2BGTA37y2AthGg4khuAxC9BTR+QxirE5lH3YpUNUYn7iUnbTQa5eFJv1a08zExUB6BFYNKHG3AnayDqbM2xExbmHrbAVKSwlTKtilhKLMboEAcI50rLegcrEoFNpCxUF3PnEWfDwTQMMZGlVronfMyoPYCngFKJ09rkkaVWqSjEACTSw3Jx2wAwDSNTFMDgDzmEtzQSLbC6DrSBfzCKg7nmXk+3ckAWXKxAJZL8EnUFYB0vhYtpZoiw1RSy2qn2LPAhU6JFm5l46eteDbckJjRq3qAG5QDmgHADQygtmtMbmCAuIo0CohlaxZXLYBRbTjRxiHQIYow2aGr3OgmoVkvsZEFQF2VaKB0bEUQ4YfIa9SwpcYZOgCmG8MPtORqpzqLgoi8qG3kUHLMhrTmY7MftrLJllDrm8TfAZS5whbZxPhMqn2xW1B7FjlwPjODcKdjuxK6hBmLhY5FbD9me4CSSvo3yL25Ic0LyNYNaQSAaVIbYs+Emc9kUQZYjRRQXfaQYWJMhsTNfvuH64OzgMC48XV9uK4Pl/PC7qG1H7G1S5txEip9/oTdvI2ZNMWeAPxMXRbknrkVcU1juZUkjnjp+sjt+sjtf37kBv+sdk/GXZDtZn1udGRWS2sxf9hMRoGZFcnzfQRdKoytFFSeBTjaCsY44U/x7TDoId+SN6uzowXmV1TNcZZTrP6c5MB9KVh55h/si87Ie+If/B2tfOKky5tJ1in9lnw1U4M+HEE4w2hvoEMGfxv9tb9V2ZL/o9dGv5fHh1/vqB4OT0/nV1zL/+07Lfx0fh+mtz8A);lineShape=1;strokeColor=default;sketch=1;hachureGap=4;jiggle=2;curveFitting=1;fontFamily=Architects Daughter;fontSource=https%3A%2F%2Ffonts.googleapis.com%2Fcss%3Ffamily%3DArchitects%2BDaughter;" vertex="1" parent="1">
          <mxGeometry x="120.37561363927307" y="5.736327292425017" width="30.741002755589534" height="31.674693801208605" as="geometry" />
        </mxCell>
        <mxCell id="medBBw7VQGJF7NqLrqEZ-10" value="" style="shape=stencil(7ZzZjhzHEUW/Zl4LuS/PsvwfAkSZA9OkQFFe/t6RHldP143uUxyAhimg32bJW5WZEXFjy6yn/MNv73/69d1TCr99+fzpr+/+8fzzl/dP+U9PKT1/fP/u8/MX++kp//iUf/jl0+d3f/n86fePP7/8/utPa+T66W+f/r6e8M8XXNxqWKAU/vXyh7yF/p8//Pll+Ifnj4fhpR2Gx7qNguPz8fFpawnHH6dT0zZwPnkexnd7QsTx4zB+lC1VGt+O8x9jazw+HsfPLeP4Wg/jZ9gCzr+48XXietNxfNwCzid2Hf/fHbszPkQdX+H5YdeWrx7f3jQf2403rTeo/qz9xOfnoONJXmFLx/We6IONF/1hfQtbP+7PMPtCe5Tx3d4I9pi3epyP2WNq98fXrYu92xPy/fF9m8f9j4P137b7uKH2BHh+NIU+GkzdCvFP3NJxg8o2yV7i/rjX8Y3mH3f1eh1feP696nh+/owyvoK8Ytrp/nX84PFxyn5mmo+pi45HPk9bPjqYtmvg3fHH/exbCjxeDGAbxJ9pX97FwLZK9pV2c7oQxBZZvu24XhMAGaQZgChoNguAGY2tHydUA664q0dqzIhtmyKwvgXQoK4G0NOusnfmLx61153D7m1QPFJQH7vM74lgSAxhMiMZ560LB9kmkJM0zhGlizvv3Qa0bRw3qVXWir71I6DO3bPdBgx1TLXtinIPIIZjgEiWOXbivwAqh06mqVEBmbhoKNcZgJxTNLkG9waa0nTsVdm9To3PbJcCyWGqORigMUAiotrZI0xHAGPn8K8FzC0Qp/op2SPetOjFMfAGC3PiUVvNHohWV5wmJJDQgFJwtDSQJlPSSLZn9LTG6xKKG1ESa6SqsVoz10CL7rv2XwFIW5cvO9pDM7YFOeSwK8IVIFD46PKtZmxLb0jOpsvu8G4Dir6hdMxIc9M1FA6pzL9KTF7alkBwyyELzWQkgTzUZTXOigwgaUubmLZnx62mrZ3k4MKGXpC9DSAkYH6aMlMD1KO2mhctJLihoXbve7Z6D5CyAjq/QbJZI4FIu9R3nrsCJHqDi67WGxiQi65hAAkYIDoARehmD5KCmRwohTHAcJKmiGwBZFstySBdsm0V1QhnglNujRj+5Lkb5JVjD/CGEvY08MqmJzBfiaoa5qcpcyhp1/4r9u7gUAwwxR4S5rY2pSmqUZHuS9bk2baVgkRjUim/1Igmupj0aKKv77wNGGoPtiqyOMt2giTQHb2ozbiKHAIGujVpBrSokt7gIoFxCd9vA6omHLNg1aM6mjEAORQL2IQExtgjqNtZX9ZQ2nSJUprWlJfsnYPyyqGhtGlXojdMVe8c0R6MVCRDeY3R7gHaUXApo4ku2soKyGBxBhBuTRftug2IW8gKIF0ygBRwFgBUwwC5KgALCLbrUxdNJGAAv63ESz1qcGKCo3RgAYYCyKEYQFzWqhueTEkW3TAiW4CiAIrIluBEvbn0ZrpUJDLm4MQAUbxowJivu1pUG1ztDUr3ZrSUi64pVQVQatl9fTjgLi3WiAqgBHxNwAUnVIAzQHU9KkqaDCBNs/M3JFfV77xoDRIDMt9KL5zgBgGGxktrkjQlV8xpA/PpG4DODmXumed1jYzZO0ri15mXgibglp1SZLwAwq0ZBbemdJR0tHif6D7s/74A2k4Ld6d0VI3V4WWbzg5wQjPaQz7dJSkBG4AyxaX9QwFUGOwuuo/cFl5knNyUSHCur7QWzS5LOuG2rUiVzu1GTssMIAn4Ug0Kf1zvaikfAZILHTJ2Y7tLOJaPI4srag8r3qdtrRq3toRlilWUkFJLxprASuiP22qZIgluBHdGYqDFrRavxHwNm16jaJ1vlf+BBEa7QTPUBLIExgeJlO2OywQugImFwTF1SpmbLqsxfxScZYoUnMyLV74AKi56ut7pynbpDVkTv1WKBwN6TfOufFwDm56XGPKqmEP5w3T59Mi8rVNTGhNloSlNba8NjgQMMI+qMQPuUgyuLL1kCSY3Xaq4ZAnquhYRFUB9bANITmPCP9km4XsDkEEYQHhmAUiZhiqTASoDtOyQMA6dl+7BFYCqm3NorcUER0x2AxBYmYY7wDXRo6xFywkx7vivbXUACu/ndGd8OuY00zUVB0e60zXkBvP9Uu+iAJT01JrXYPq+ZaMBw5P1Cnf0i3L2tQgxiISF7LVNcviLqzNLEF0BFMQtURcFUOV7TrdLGVNw077hAJEJ/40A59qXfpMcqhYfLcJB/c6udRSZmKI7c5LwFJWpWpPiY8VjqKbN4kdrwIaC7YlUBSx4oDrc6EqueaLjtZhM1Dun3SndAwRXksoUk1U9u2RBHAKydhUTZ9TDn36L6Eb71D7+Oh4Bguu+Bz44VzRFkMZ/5NQvu7M5Bcl1nW8SXYpY2VjFR0kIGrLGSl9deXNyoeJblBG4DvcoIzzKCN+mjBBdn4ad4gJIrliwOdXdtYYyzloWYkAtnJnoH6NUDqzxKJVfdomn9C1K5SeA/3GpfOzKfKXeVLhbM5ZDVXw2Z+2JuyiAjc5Hs3YHPJq1Pl76/pq1cupk3YNhqpSLNqXhxROzYD0zmPHcvf1bz3lNVL7X5u91+YcOkXRVjaus/zai6jatqha94rLG69ogn+aR+s9JQbT6o8Z8P8EihXFcdeXD/cWlKPYXirBME6QwXTnjKOVGikLaZ4AgSVBB6itJASOh9q3zc13f0GgNQT2KKTClipY+NxdsnJxYfZyJTd/Hmdjm3vA4E+sAuksBU3YDaMaRsPOfq+bHle9q5+JuxwwGJC1hNe7hresDjjWo5pWmo/uJbZfU3TnGgvmAhRaSW657H3R3pWjppE9sTlnEJhWpUbEMl4Irxg90WevCznHRo2E+EIe77DLRi0Z/ay9hRSq6054t8k2rxwW2/Q2PC2yngP/3BbboiwIn9tBdi2NiJSQ25xRPLqUWzS1HxqgyuiRoNNxW1y0bBVmmK7OOiObTNEK0FZMQ6g0PSs6kanuwVTxb1LQWZXqa+Ka1O5+L5030uIl5bLy7HpTxVvWAlC5qdhUT37V+fF3h8XUFGf9dfV3BRUYmQbrWMtUAXj9Ac8fkJdHO/DmkoiXGyg2irPWR9eEAMrA/wueK8HNCj88VvflzRWBg39/niqTfObij6k7gn3zey535PPl8WHAulVNe1zI7+fyZO/TEX1cLWuhLyFZutRHvHQZ1LtxbC2qLAQ/luNtGXJ4IWq3jSrEzRB7u7Jwn42iElxrVa/FGXlT268QUdSNZCd78Ab+T4fbD67cCf3n+8OHlU4PX/9dvC9qfXr5LmH/8Nw==);lineShape=1;strokeColor=default;sketch=1;hachureGap=4;jiggle=2;curveFitting=1;fontFamily=Architects Daughter;fontSource=https%3A%2F%2Ffonts.googleapis.com%2Fcss%3Ffamily%3DArchitects%2BDaughter;" vertex="1" parent="1">
          <mxGeometry x="246.74797092843505" y="25.757092666025073" width="167.22731661158969" height="40.52443502909489" as="geometry" />
        </mxCell>
        <mxCell id="medBBw7VQGJF7NqLrqEZ-14" value="" style="shape=stencil(7VjLbhsxDPwaXwk9KEo6p+l/BIjTGE3jwElff18KrmyL2h03xxa9rdcckRyR1Kw28eb18e5luwnu9e2w/7z9vrt/e9zED5sQds+P28PuTZ828XYTbx72h+2nw/7r8/3x98tds2xPX/bf2go/jrjAJLGhgvt5fOP7i49H+6fd86V9oBIG+0Qprdv7Sszj+oFCBgCmNAakEVW3Dqjk82AfI4W6bh+pjuuzUAAZe4pjAkkoF8AQpTrYSyQn6/alR3uyT+QRo6XTcQKoSw8SjpSrzcCDjJMnLyNFmXJYB0ihPIYUKwWQQ4kkfgRoVQCSKttdVt4iSLrWnuIFABWqAsw+NABIWgEsE4AhQIIFCM4hTx4y9lAmlir2UNMIUN5As3nnyDmLiICmZcSVnahiAajjWtrVAioG/F7vVH4O9lzbumQBaMi04qgWEMHYU4AzAKYImrQGcmMLMUOWiqMy0ppK97nc1ZnSWE059C5cnhtsWSrc62sRoBHX0UM9zarlUZZtgbe9B3NDASIWUEEOCrDn1bmA1xAhTC5ARyjAsQVkQFMUO/EVACe+2EO6TTcU0gwoOAexLacApBta0pOHCMq10eosIKCkdecmDx7vg/AEwDmUNIUE5nEsC0kz8qABTCEJaggFTPtQrwCmDoJySXMoFpBwBxmB1XoUN1Ce+gGNDQWkkdY/6dE6ucBzw02AghuiTkkICkk7aAKgg7QBvAW4KwAz+wqUcS2HbAGMWZrLFem+dwP0hAgm6QAnWYqWVtWaDAAinZPTKedIwGDKk2ZSOS3oaPdWAHHs6mAZkK1gbxIey5P/YvdfErtYKP79YpftAG8hgb1WHelGllQdO5CD1OkT1nfVtfbNa+qVdePQ/GarT1LuR8DaTYgfaRWGCijbytBRhY5238fWxfoe2E+lqnMM7Vqw63OCZTHF377x0UVL7B88p8p2sBV8scrbeyjglCJzt8TwfAsa0UiRgzURopWgri+wZm++sHBnqr1RSg4W9XzXhWWS0uFt/EhhqP3EDxqoZ7rP9qgi1N7cpTl4lrfLzGLsBfHDM58FVHSzH1vYw7HV7L2xZ8zP+y5jr9rrw/nm92H39HS8OL78394U66vjLXO8/QU=);lineShape=1;strokeColor=default;sketch=1;hachureGap=4;jiggle=2;curveFitting=1;fontFamily=Architects Daughter;fontSource=https%3A%2F%2Ffonts.googleapis.com%2Fcss%3Ffamily%3DArchitects%2BDaughter;" vertex="1" parent="1">
          <mxGeometry x="432.68668148328925" y="114.0132889004567" width="99.72072579563701" height="73.02897691513597" as="geometry" />
        </mxCell>
        <mxCell id="medBBw7VQGJF7NqLrqEZ-15" value="" style="shape=stencil(7VjJbtswEP0aXwec4X5O0/8IEKc26saBk25/31FdKuJQekGOBXKT5ffE2Rfu/M3z4e5pvxP3/HI5f93/PN6/HHb+007k+HjYX44v+rTztzt/83C+7L9czt8f76+/n+4m5PT07fxj+sKvK08iuTqxxP3+94ak/H3x+Yo/HR+XeKbEHb5SzNt4LuR6PGeSCghCtSdIoQwkyhRLhw8MD/AUQ4ePGC/E/fdjogLwgWru8YWigwonQ1ALMRAokzcSeQrAByFR9b2JCnHcJqRMLD1BvQIIJVBJHcFX8mmbUHOTeD7BkUNWcvP/MyNRBGaq6gixjkBHqBK1VyKr74Fds6fSi1QiFQ/sGimb5IktGtcJ0lScCZUCCD4lSLKEjERiq7QSKrCSEpIfCEikOb3mCuCwr5NrwbY8AinhKIVBa1AzlGBSSAkRxKsSOFsCqhpKcEak0grDKiHOVlwQEooNZyurEjw2KxvPZSjSZCW2hISUzi38Z4J6RgChkAwEj5TWXuAsgZFI1ZZvJaDqqgQbS3OwrFcB9YMMSmOCGJG4NeEtQnCWgKJVCd4ktbRw3CLY8BZcZyqVYAkFtRStW8ZKnhxKUU2XYAmMCSEOBOTpMjhOYGfX8E6DlSLuo1YkaZ11i+BNEWBcBPSEIZYYFbJMeYjWjDPODIhKCDin45BAggh1JYHeyOk4FAFY+aqdKZWAptY814gFoeIEsg2FW9JuEgZPlzeqxhBLHmec7eyCPf1uwsd08jGd/EfTibebojaIjPquBlPvaV0RUEcp0gSYNwj1PVB66rK9DtNyCWJp2puGLagAP+iCYeq9rseoZ+kKYxq17n6MHJftKBAinH9CtlaKrtXn9YW32HVUrYQuKVhHiz4fpugCCaRxYPDconEVP+yiurKjsuTaXLHQWIA8w+qq2zGafXjusPOlSW73NOuESNJrzIkcCAsuw67bvrDuM2kGb3jXdNrC+2zwKHMUb3JTywHwmOJrMXjkYQ0Jb+V3SH7fWuUCj+QPtty5FrNb+GDlF5D3is8WH9C9XrRDmIO1UfFmr9KMQfLEJu4rPiJ7RjuBMa4R773HfBOvD6+Xpg/H0+l657r8316y6qvrBa2//QM=);lineShape=1;strokeColor=default;sketch=1;hachureGap=4;jiggle=2;curveFitting=1;fontFamily=Architects Daughter;fontSource=https%3A%2F%2Ffonts.googleapis.com%2Fcss%3Ffamily%3DArchitects%2BDaughter;" vertex="1" parent="1">
          <mxGeometry x="659.9032879194535" y="56.052776588826305" width="50.175196019724574" height="50.57355747246973" as="geometry" />
        </mxCell>
        <mxCell id="medBBw7VQGJF7NqLrqEZ-16" value="v" style="shape=note;whiteSpace=wrap;html=1;backgroundOutline=1;darkOpacity=0.05;fillStyle=solid;direction=west;gradientDirection=north;shadow=1;size=20;pointerEvents=1;sketch=1;hachureGap=4;jiggle=2;curveFitting=1;fontFamily=Architects Daughter;fontSource=https%3A%2F%2Ffonts.googleapis.com%2Fcss%3Ffamily%3DArchitects%2BDaughter;fillColor=#fff2cc;strokeColor=#d6b656;" vertex="1" parent="1">
          <mxGeometry x="140" y="90" width="140" height="160" as="geometry" />
        </mxCell>
        <mxCell id="medBBw7VQGJF7NqLrqEZ-17" value="" style="shape=stencil(fZbLUsMwDEW/JluNbdmWvObxH52h0AylZUp5/T0yIW5lEu0SJyeypHsVD3jzttu8bofg3s6n4/P2c3w47wa8HUIYD7vtaTzL1YB3A948Hk/bp9Px/fAw3b9u6pv16uX4Ub/wNXHMgKFSwX1PK+gh5N+V+wnYj4croCQoUQHRA1tAAcoKSBEwmkD0CsgEWAwgQtEAFchpHeAMpHPgAhzWAUo9UDKwESEjOFaAdw6cWyeS64nCc6UXAWRwRQMIxOtAkFbrCJzAGZ0LHoruHEkEIwdfIHWdc8DWlkRrpMVEZtKBwGkAMwSjEfIYnQLqJ4xW1w3oKtVNGoCk2KlPyhCNstYihj5CMSLUNnVbklYaSVchaGlUsZABcG/qKkcjhys1t1ajHaIZpompmWo562bJJtdsAhfTN0O0wbDcOYKoc7iMnmWPyuDKPUBGmepo7Dwq4xMNuYrWNFAHtLElATp9Xyb6muWwiyBqMbbkA7C2HGUoxhQQQ6JWBs8rywF6YSQ2DfdPeWJZy28O6N/ISFbTwOv9S0be+sHNI675P5tDzxPkbtKb9akDq3Pz/IFlSRAkbWY3LyznyxBT9775pyrgdUHDPJ/+3peLy3njcdzvp+PK9fP+fCJL09kG734A);lineShape=1;strokeColor=default;sketch=1;hachureGap=4;jiggle=2;curveFitting=1;fontFamily=Architects Daughter;fontSource=https%3A%2F%2Ffonts.googleapis.com%2Fcss%3Ffamily%3DArchitects%2BDaughter;" vertex="1" parent="1">
          <mxGeometry x="346.39058934815375" y="140.4611370756578" width="2.7195546537281" height="2.7179991670450834" as="geometry" />
        </mxCell>
        <mxCell id="medBBw7VQGJF7NqLrqEZ-18" value="" style="shape=stencil(rVfZbttADPwavRJ7L/mcpv8RIE5t1I0Dx+nx96UqrGrS0RQB+iavOFpyODw85bvX/cPLbkrh9XI+fd39ODxe9lP+NKV0eN7vzoeLPk35fsp3T6fz7sv59Pb8uPx+eZgt56dvp+/zF34uuEi9z6AUfi0HgWr+c/B5MT8enq/MhVI25vMH0rZ9lPF6ALJQARfkTIUNoEaqYRtQhLJ1qTKluA1olaoYQEvUwA1diG0MrQ8n3ycpEEcD6IlqBQAmsTfonQm4JPraxsCBQoOAZl3iSAJYUgBXCyhUOwSITRx36tglsTFIpIi0py5ZrUqhjGjVoIsFdAo4hmzzoCcBsaSJqx4g6AYeJF4BGAXNQwgrgKkhQB95XQENq1XT5G7IQyxbAKclFXwGTWAGOC01EiSN7guI88j9FkvB0qryzihopuJKVLBambp4QMTyjt0DGgbUmxKNAgGdPUswceLVqnlALsWgXcVpI+CCEN/JVExQGxqEbd8q11QgoLii1lziog6WpvlOLKZmU33Fw/9CBGrseUJjrt/wxAz78TzmPlRDOkjTzRDqwCUd1W4Z6HoC+rEuA8nqr2mVglyzT3VRkkBVB6/vlEdMG/auL6VEAfRWbXM2zXqCtBpG/a6y6HA6rDN8ta9wwN1UZ9Q9A8YbXHHC8lf33d5DAtlxO0mBc2ddNFcyqUBn3EgIY314X2ve9wC7daRSnTkq3w9uzf8014e/C/rT4Xhc9vvr936h16Plz0C+/w0=);lineShape=1;strokeColor=default;sketch=1;hachureGap=4;jiggle=2;curveFitting=1;fontFamily=Architects Daughter;fontSource=https%3A%2F%2Ffonts.googleapis.com%2Fcss%3Ffamily%3DArchitects%2BDaughter;" vertex="1" parent="1">
          <mxGeometry x="335.10247034428767" y="157.4478784113685" width="58.35931284343838" height="6.680626410101279" as="geometry" />
        </mxCell>
        <mxCell id="medBBw7VQGJF7NqLrqEZ-19" value="" style="shape=stencil(fZbLUsMwDEW/JluNbdmWvObxH52h0AylZUp5/T0yIW5lEu0SJyeypHsVD3jzttu8bofg3s6n4/P2c3w47wa8HUIYD7vtaTzL1YB3A948Hk/bp9Px/fAw3b9u6pv16uX4Ub/wNXHMgKFSwX1PK+gh5N+V+wnYj4croCQoUQHRA1tAAcoKSBEwmkD0CsgEWAwgQtEAFchpHeAMpHPgAhzWAUo9UDKwESEjOFaAdw6cWyeS64nCc6UXAWRwRQMIxOtAkFbrCJzAGZ0LHoruHEkEIwdfIHWdc8DWlkRrpMVEZtKBwGkAMwSjEfIYnQLqJ4xW1w3oKtVNGoCk2KlPyhCNstYihj5CMSLUNnVbklYaSVchaGlUsZABcG/qKkcjhys1t1ajHaIZpompmWo562bJJtdsAhfTN0O0wbDcOYKoc7iMnmWPyuDKPUBGmepo7Dwq4xMNuYrWNFAHtLElATp9Xyb6muWwiyBqMbbkA7C2HGUoxhQQQ6JWBs8rywF6YSQ2DfdPeWJZy28O6N/ISFbTwOv9S0be+sHNI675P5tDzxPkbtKb9akDq3Pz/IFlSRAkbWY3LyznyxBT9775pyrgdUHDPJ/+3peLy3njcdzvp+PK9fP+fCJL09kG734A);lineShape=1;strokeColor=default;sketch=1;hachureGap=4;jiggle=2;curveFitting=1;fontFamily=Architects Daughter;fontSource=https%3A%2F%2Ffonts.googleapis.com%2Fcss%3Ffamily%3DArchitects%2BDaughter;" vertex="1" parent="1">
          <mxGeometry x="322.9423134860847" y="201.84044742048548" width="2.7195546537281" height="2.7179991670449266" as="geometry" />
        </mxCell>
        <mxCell id="medBBw7VQGJF7NqLrqEZ-20" value="" style="shape=stencil(7VjLbhsxDPyavRKiqOc5Tf8jQJzaqGsHjvv6+3JryF5R3gl6LJDbxtEsX0NytJM8vG2fXjeTd2/n0/Hr5ufu+byd5NPk/e6w3Zx2Z32a5HGSh5fjafPldPx+eL78/fo0n5yfvh1/zG/4dcFVcnkGeff78gNTqn9/+Hw5vt8dFsc5Unb9+UjOrQNu72sA8ZSBBZ9IegtRKDAAFMqxA2QhjgBQKacOUDIVEIO49r4GqOqkBwC2FmqmCmJQQOrLUAsF5BKTBAsoCcaQ+zrUSr5AgEsWkEDQmlYuFoBc0sJ5toCKqJEtgJ3D7EvkZfAJmYgkAyCBNPlAcUiToKiF6lDqigGxWkBEQWu/DNxwqIMSsYlBWvHXuBH7LBVtOcRvrVzvUtKWy+uAECn4fgq4NnnuAnRImMEkWpmwDkhMsbfgPTHgd3a20qwWADVyIe6D1lnJIGhNYu1jmKcnqIPOrdw3hFYGASpT6SdZ0NkG0qpkzqYOvkV1f0HcOnKBKCCvc0caE8p4QKZ5cBkLgVgAYBg0CkCjTMd7TRZQQdQ1Wm5EXYvIpWCH5WwBBe2bAwtABGRSgK1DgE2t3Ahi6xBQlnQHmbTqakdBK5uDBUCXPEk/+qI6iYJWj4sFOFS40Db/cs6ABaHUsFxSAHIpD9RwbQOssdU0tcYgCFDboFsAKqpDHejt245ZBQzUQOJBASFaAHSptFG6YGtAFnLTRwtAAapPC+dMDO+2aBJrARZOrHZQQMY97bMFeBQDt5ZfpDUhet8FAAvzCuo7ThcEUie52sKpNI0grTk2PXVdcgJbNLO1wBneUVJpDbmw4IFLKgWM/hGVHyBoTaLlEsNhrHLGGf1TYAxSbOHmyoAsqdqxwjVgff9xR2nq4+OO8h/cUXRDDXdwaMHbHlW1jDrIu5b1xXcExG8ujZyL4YpWEEsTL9c5I3DJZbsfWJcYMODshUOVN8jpoNSv+2jt7X1CGao910T87bgHzrB9u2vzaeW4kTAO1mpQzw7eYlQpe3MctXAcfUfHBwnp4PUlE1dzXABpiuW9JhKEWuxU5zYi7yuKf/te+O5xfbh9mnzZ7feXL5vL/9tPmfrT5TOoPP4B);lineShape=1;strokeColor=default;sketch=1;hachureGap=4;jiggle=2;curveFitting=1;fontFamily=Architects Daughter;fontSource=https%3A%2F%2Ffonts.googleapis.com%2Fcss%3Ffamily%3DArchitects%2BDaughter;" vertex="1" parent="1">
          <mxGeometry x="420.5505693496275" y="134.6250100653632" width="18.740046830931878" height="38.09504619332121" as="geometry" />
        </mxCell>
        <mxCell id="medBBw7VQGJF7NqLrqEZ-21" value="" style="shape=stencil(lVbLctswDPwaXTEkwRfOafofmYlTa+raGcdpm78PVJm1CEvb6U0SscJrF8TAD2/7p9fdENzb5Xz6vvs1Pl/2A38ZQhiP+915vOjTwI8DP7yczrtv59P78Xl+f32aLKenH6ef0x9+zzhfKcQJFdzH/CVScn8+fJ3tD+NxYc+OfO3sg/4hbwNioMC9AyEPAKmSDx0gF0ppG1ASFd8BqgYJcpBEufdQCwkCFCrSA4QCAghxH5I4krgN8M6Rcz0ikBToohpAIgfKJJVK3wjJ2IMemyQqJZCEKHUMQCgJAHibw6IOqwit+zXHhYsCYqqZUrZJVAYATaInuHafQZkqE7NtxLUO6wBtrAEwRZSDHvd81cIxqKvmUPqktW4JaE6rVI2EVIWATPo/7seGSohB0spmJxZw1fkWmazmCmUsUs82h4JCUiL0HlSkjEJSyRWr0VAhQAwgEoM+KMBMVxUhBJQmsAW9HRJ1av9bCIhRWQOVYAFolCk15E6iaLpOzIkWgKbrBLjzgAA52nGsQXpAjRgp91UqsflcBYRsuZRiE+36wGd7aTG3i3IV4CibodEku2HujD7Jg6bd3T4ZRu/soI9wCHtKfewM28XkesbpNQFUFttpM3fQvNhUXduA1vnftpubObqgvG9X5M3eg2iUB1mMfQGC98kK3sMh50vr+999jQTF85/74L/t9eG2fL6Mh8O8uy7P7bKqn+ZFlx8/AQ==);lineShape=1;strokeColor=default;sketch=1;hachureGap=4;jiggle=2;curveFitting=1;fontFamily=Architects Daughter;fontSource=https%3A%2F%2Ffonts.googleapis.com%2Fcss%3Ffamily%3DArchitects%2BDaughter;" vertex="1" parent="1">
          <mxGeometry x="452.2410384495904" y="145.61573115700958" width="9.508391634318945" height="12.604791916907727" as="geometry" />
        </mxCell>
        <mxCell id="medBBw7VQGJF7NqLrqEZ-22" value="" style="shape=stencil(fZbLUsMwDEW/JluNbdmWvObxH52h0AylZUp5/T0yIW5lEu0SJyeypHsVD3jzttu8bofg3s6n4/P2c3w47wa8HUIYD7vtaTzL1YB3A948Hk/bp9Px/fAw3b9u6pv16uX4Ub/wNXHMgKFSwX1PK+gh5N+V+wnYj4croCQoUQHRA1tAAcoKSBEwmkD0CsgEWAwgQtEAFchpHeAMpHPgAhzWAUo9UDKwESEjOFaAdw6cWyeS64nCc6UXAWRwRQMIxOtAkFbrCJzAGZ0LHoruHEkEIwdfIHWdc8DWlkRrpMVEZtKBwGkAMwSjEfIYnQLqJ4xW1w3oKtVNGoCk2KlPyhCNstYihj5CMSLUNnVbklYaSVchaGlUsZABcG/qKkcjhys1t1ajHaIZpompmWo562bJJtdsAhfTN0O0wbDcOYKoc7iMnmWPyuDKPUBGmepo7Dwq4xMNuYrWNFAHtLElATp9Xyb6muWwiyBqMbbkA7C2HGUoxhQQQ6JWBs8rywF6YSQ2DfdPeWJZy28O6N/ISFbTwOv9S0be+sHNI675P5tDzxPkbtKb9akDq3Pz/IFlSRAkbWY3LyznyxBT9775pyrgdUHDPJ/+3peLy3njcdzvp+PK9fP+fCJL09kG734A);lineShape=1;strokeColor=default;sketch=1;hachureGap=4;jiggle=2;curveFitting=1;fontFamily=Architects Daughter;fontSource=https%3A%2F%2Ffonts.googleapis.com%2Fcss%3Ffamily%3DArchitects%2BDaughter;" vertex="1" parent="1">
          <mxGeometry x="553.9767962447054" y="121.84044742048559" width="2.7195546537279434" height="2.71799916704477" as="geometry" />
        </mxCell>
        <mxCell id="medBBw7VQGJF7NqLrqEZ-23" value="ddsdsw" style="shape=note;whiteSpace=wrap;html=1;backgroundOutline=1;fontColor=#000000;darkOpacity=0.05;fillColor=#FFF9B2;strokeColor=none;fillStyle=solid;direction=west;gradientDirection=north;gradientColor=#FFF2A1;shadow=1;size=20;pointerEvents=1;sketch=1;hachureGap=4;jiggle=2;curveFitting=1;fontFamily=Architects Daughter;fontSource=https%3A%2F%2Ffonts.googleapis.com%2Fcss%3Ffamily%3DArchitects%2BDaughter;" vertex="1" parent="1">
          <mxGeometry x="968" y="-1642" width="140" height="160" as="geometry" />
        </mxCell>
        <mxCell id="medBBw7VQGJF7NqLrqEZ-24" value="c" style="whiteSpace=wrap;html=1;sketch=1;hachureGap=4;jiggle=2;curveFitting=1;fontFamily=Architects Daughter;fontSource=https%3A%2F%2Ffonts.googleapis.com%2Fcss%3Ffamily%3DArchitects%2BDaughter;" vertex="1" parent="1">
          <mxGeometry x="530" y="210" width="120" height="60" as="geometry" />
        </mxCell>
        <mxCell id="medBBw7VQGJF7NqLrqEZ-25" value="s" style="shape=note;whiteSpace=wrap;html=1;backgroundOutline=1;fontColor=#000000;darkOpacity=0.05;fillColor=#FFF9B2;strokeColor=none;fillStyle=solid;direction=west;gradientDirection=north;gradientColor=#FFF2A1;shadow=1;size=20;pointerEvents=1;sketch=1;hachureGap=4;jiggle=2;curveFitting=1;fontFamily=Architects Daughter;fontSource=https%3A%2F%2Ffonts.googleapis.com%2Fcss%3Ffamily%3DArchitects%2BDaughter;" vertex="1" parent="1">
          <mxGeometry x="392.41" y="210" width="140" height="160" as="geometry" />
        </mxCell>
        <mxCell id="medBBw7VQGJF7NqLrqEZ-26" value="" style="shape=note;whiteSpace=wrap;html=1;backgroundOutline=1;fontColor=#000000;darkOpacity=0.05;fillColor=#FFF9B2;strokeColor=none;fillStyle=solid;direction=west;gradientDirection=north;gradientColor=#FFF2A1;shadow=1;size=20;pointerEvents=1;sketch=1;hachureGap=4;jiggle=2;curveFitting=1;fontFamily=Architects Daughter;fontSource=https%3A%2F%2Ffonts.googleapis.com%2Fcss%3Ffamily%3DArchitects%2BDaughter;" vertex="1" parent="1">
          <mxGeometry x="680" y="210" width="140" height="160" as="geometry" />
        </mxCell>
        <mxCell id="medBBw7VQGJF7NqLrqEZ-27" value="" style="rhombus;whiteSpace=wrap;html=1;sketch=1;hachureGap=4;jiggle=2;curveFitting=1;fontFamily=Architects Daughter;fontSource=https%3A%2F%2Ffonts.googleapis.com%2Fcss%3Ffamily%3DArchitects%2BDaughter;" vertex="1" parent="1">
          <mxGeometry x="750" y="60.45999999999998" width="80" height="80" as="geometry" />
        </mxCell>
        <mxCell id="medBBw7VQGJF7NqLrqEZ-28" value="Text" style="text;strokeColor=none;align=center;fillColor=none;html=1;verticalAlign=middle;whiteSpace=wrap;rounded=0;fontFamily=Architects Daughter;fontSource=https%3A%2F%2Ffonts.googleapis.com%2Fcss%3Ffamily%3DArchitects%2BDaughter;" vertex="1" parent="1">
          <mxGeometry x="630" y="220" width="60" height="30" as="geometry" />
        </mxCell>
        <mxCell id="medBBw7VQGJF7NqLrqEZ-29" value="Text" style="text;strokeColor=none;align=center;fillColor=none;html=1;verticalAlign=middle;whiteSpace=wrap;rounded=0;fontFamily=Architects Daughter;fontSource=https%3A%2F%2Ffonts.googleapis.com%2Fcss%3Ffamily%3DArchitects%2BDaughter;" vertex="1" parent="1">
          <mxGeometry x="670" y="230" width="60" height="30" as="geometry" />
        </mxCell>
        <mxCell id="medBBw7VQGJF7NqLrqEZ-30" value="" style="edgeStyle=none;orthogonalLoop=1;jettySize=auto;html=1;rounded=0;sketch=1;hachureGap=4;jiggle=2;curveFitting=1;fontFamily=Architects Daughter;fontSource=https%3A%2F%2Ffonts.googleapis.com%2Fcss%3Ffamily%3DArchitects%2BDaughter;" edge="1" parent="1">
          <mxGeometry width="80" relative="1" as="geometry">
            <mxPoint x="650" y="320" as="sourcePoint" />
            <mxPoint x="730" y="320" as="targetPoint" />
            <Array as="points" />
          </mxGeometry>
        </mxCell>
        <mxCell id="medBBw7VQGJF7NqLrqEZ-31" value="" style="edgeStyle=none;orthogonalLoop=1;jettySize=auto;html=1;rounded=0;sketch=1;hachureGap=4;jiggle=2;curveFitting=1;fontFamily=Architects Daughter;fontSource=https%3A%2F%2Ffonts.googleapis.com%2Fcss%3Ffamily%3DArchitects%2BDaughter;entryX=0.99;entryY=0.427;entryDx=0;entryDy=0;entryPerimeter=0;" edge="1" parent="1" target="medBBw7VQGJF7NqLrqEZ-26">
          <mxGeometry width="80" relative="1" as="geometry">
            <mxPoint x="540" y="330" as="sourcePoint" />
            <mxPoint x="710" y="340" as="targetPoint" />
            <Array as="points" />
          </mxGeometry>
        </mxCell>
      </root>
    </mxGraphModel>
  </diagram>
</mxfile>
